<?xml version="1.0" encoding="UTF-8" standalone="no"?>
<!DOCTYPE svg PUBLIC "-//W3C//DTD SVG 1.1//EN"
 "http://www.w3.org/Graphics/SVG/1.1/DTD/svg11.dtd">
<!-- Generated by graphviz version 9.0.0 (20230911.1827)
 -->
<!-- Pages: 1 -->
<svg width="497pt" height="582pt"
 viewBox="0.00 0.00 497.00 581.75" xmlns="http://www.w3.org/2000/svg" xmlns:xlink="http://www.w3.org/1999/xlink">
<g id="graph0" class="graph" transform="scale(1 1) rotate(0) translate(4 577.75)">
<polygon fill="white" stroke="none" points="-4,4 -4,-577.75 493,-577.75 493,4 -4,4"/>
<!-- frontend -->
<g id="node1" class="node">
<title>frontend</title>
<path fill="#b2d8ff" stroke="#666666" d="M261,-573.75C261,-573.75 105,-573.75 105,-573.75 99,-573.75 93,-567.75 93,-561.75 93,-561.75 93,-531.75 93,-531.75 93,-525.75 99,-519.75 105,-519.75 105,-519.75 261,-519.75 261,-519.75 267,-519.75 273,-525.75 273,-531.75 273,-531.75 273,-561.75 273,-561.75 273,-567.75 267,-573.75 261,-573.75"/>
<text text-anchor="middle" x="183" y="-541.73" font-family="Helvetica,sans-Serif" font-size="12.00" fill="#000000">Frontend</text>
</g>
<!-- service&#45;customers -->
<g id="node2" class="node">
<title>service&#45;customers</title>
<path fill="#b2d8ff" stroke="#666666" d="M168,-227.25C168,-227.25 12,-227.25 12,-227.25 6,-227.25 0,-221.25 0,-215.25 0,-215.25 0,-185.25 0,-185.25 0,-179.25 6,-173.25 12,-173.25 12,-173.25 168,-173.25 168,-173.25 174,-173.25 180,-179.25 180,-185.25 180,-185.25 180,-215.25 180,-215.25 180,-221.25 174,-227.25 168,-227.25"/>
<text text-anchor="middle" x="90" y="-195.22" font-family="Helvetica,sans-Serif" font-size="12.00" fill="#000000">Service Customers</text>
</g>
<!-- frontend&#45;&gt;service&#45;customers -->
<g id="edge1" class="edge">
<title>frontend&#45;&gt;service&#45;customers</title>
<path fill="none" stroke="#666666" d="M146.29,-519.46C113.48,-493.49 67.64,-450.49 48,-400.5 26.58,-345.98 50.48,-278.57 70.01,-237.79"/>
<polygon fill="#666666" stroke="#666666" points="73.12,-239.39 74.43,-228.88 66.85,-236.28 73.12,-239.39"/>
<text text-anchor="middle" x="61.5" y="-369.62" font-family="Helvetica,sans-Serif" font-size="10.00">REST</text>
</g>
<!-- service&#45;order&#45;history -->
<g id="node3" class="node">
<title>service&#45;order&#45;history</title>
<path fill="#b2d8ff" stroke="#666666" d="M261,-400.5C261,-400.5 105,-400.5 105,-400.5 99,-400.5 93,-394.5 93,-388.5 93,-388.5 93,-358.5 93,-358.5 93,-352.5 99,-346.5 105,-346.5 105,-346.5 261,-346.5 261,-346.5 267,-346.5 273,-352.5 273,-358.5 273,-358.5 273,-388.5 273,-388.5 273,-394.5 267,-400.5 261,-400.5"/>
<text text-anchor="middle" x="183" y="-368.48" font-family="Helvetica,sans-Serif" font-size="12.00" fill="#000000">Service Order History</text>
</g>
<!-- frontend&#45;&gt;service&#45;order&#45;history -->
<g id="edge2" class="edge">
<title>frontend&#45;&gt;service&#45;order&#45;history</title>
<path fill="none" stroke="#666666" d="M183,-519.37C183,-490.71 183,-444.68 183,-412.2"/>
<polygon fill="#666666" stroke="#666666" points="186.5,-412.43 183,-402.43 179.5,-412.43 186.5,-412.43"/>
<text text-anchor="middle" x="202.5" y="-456.25" font-family="Helvetica,sans-Serif" font-size="10.00">GraphQL</text>
</g>
<!-- service&#45;orders -->
<g id="node4" class="node">
<title>service&#45;orders</title>
<path fill="#b2d8ff" stroke="#666666" d="M230,-54C230,-54 74,-54 74,-54 68,-54 62,-48 62,-42 62,-42 62,-12 62,-12 62,-6 68,0 74,0 74,0 230,0 230,0 236,0 242,-6 242,-12 242,-12 242,-42 242,-42 242,-48 236,-54 230,-54"/>
<text text-anchor="middle" x="152" y="-21.98" font-family="Helvetica,sans-Serif" font-size="12.00" fill="#000000">Service Orders</text>
</g>
<!-- frontend&#45;&gt;service&#45;orders -->
<g id="edge3" class="edge">
<title>frontend&#45;&gt;service&#45;orders</title>
<path fill="none" stroke="#666666" d="M209.94,-519.39C235.76,-492.25 273.34,-447.41 291,-400.5 335.76,-281.59 358.68,-221.52 290,-114.62"/>
<text text-anchor="middle" x="342.5" y="-283" font-family="Helvetica,sans-Serif" font-size="10.00">REST</text>
</g>
<!-- service&#45;customers&#45;&gt;service&#45;orders -->
<g id="edge4" class="edge">
<title>service&#45;customers&#45;&gt;service&#45;orders</title>
<path fill="none" stroke="#666666" d="M83.66,-172.89C80.39,-154.22 78.49,-128.89 86,-108 92.04,-91.18 103.32,-75.38 114.87,-62.33"/>
<polygon fill="#666666" stroke="#666666" points="117.17,-64.99 121.41,-55.28 112.04,-60.23 117.17,-64.99"/>
<text text-anchor="middle" x="96.5" y="-109.75" font-family="Helvetica,sans-Serif" font-size="10.00">SNS</text>
</g>
<!-- service&#45;order&#45;history&#45;&gt;service&#45;customers -->
<g id="edge5" class="edge">
<title>service&#45;order&#45;history&#45;&gt;service&#45;customers</title>
<path fill="none" stroke="#666666" d="M168.67,-346.12C152.9,-317.08 127.45,-270.21 109.78,-237.68"/>
<polygon fill="#666666" stroke="#666666" points="112.91,-236.11 105.07,-228.99 106.76,-239.45 112.91,-236.11"/>
<text text-anchor="middle" x="150.5" y="-283" font-family="Helvetica,sans-Serif" font-size="10.00">SNS</text>
</g>
<!-- service&#45;order&#45;history&#45;&gt;service&#45;orders -->
<g id="edge6" class="edge">
<title>service&#45;order&#45;history&#45;&gt;service&#45;orders</title>
<path fill="none" stroke="#666666" d="M290,-112.62C277.5,-90.02 256.19,-72.74 234.01,-59.88"/>
<polygon fill="#666666" stroke="#666666" points="235.91,-56.92 225.46,-55.18 232.54,-63.06 235.91,-56.92"/>
<path fill="none" stroke="#666666" d="M196.62,-346.23C228.01,-284.95 301.87,-136.1 290,-114.62"/>
<text text-anchor="middle" x="285.5" y="-196.38" font-family="Helvetica,sans-Serif" font-size="10.00">SNS</text>
</g>
<!-- service&#45;orders&#45;&gt;service&#45;customers -->
<g id="edge7" class="edge">
<title>service&#45;orders&#45;&gt;service&#45;customers</title>
<path fill="none" stroke="#666666" d="M142.44,-54.41C131.97,-83.34 115.1,-129.93 103.33,-162.43"/>
<polygon fill="#666666" stroke="#666666" points="100.18,-160.85 100.07,-171.44 106.76,-163.23 100.18,-160.85"/>
<text text-anchor="middle" x="133.5" y="-109.75" font-family="Helvetica,sans-Serif" font-size="10.00">SNS</text>
</g>
<!-- legend -->
<g id="node5" class="node">
<title>legend</title>
<path fill="#ffffff" stroke="none" d="M477,-573.75C477,-573.75 321,-573.75 321,-573.75 315,-573.75 309,-567.75 309,-561.75 309,-561.75 309,-531.75 309,-531.75 309,-525.75 315,-519.75 321,-519.75 321,-519.75 477,-519.75 477,-519.75 483,-519.75 489,-525.75 489,-531.75 489,-531.75 489,-561.75 489,-561.75 489,-567.75 483,-573.75 477,-573.75"/>
<polygon fill="lightgray" stroke="none" points="333,-546.75 333,-561.75 465,-561.75 465,-546.75 333,-546.75"/>
<polygon fill="none" stroke="#666666" points="333,-546.75 333,-561.75 465,-561.75 465,-546.75 333,-546.75"/>
<text text-anchor="start" x="384" y="-552.15" font-family="Helvetica,sans-Serif" font-weight="bold" font-size="8.00" fill="#000000">Legend</text>
<polygon fill="none" stroke="#666666" points="333,-531.75 333,-546.75 465,-546.75 465,-531.75 333,-531.75"/>
<text text-anchor="start" x="336" y="-536.15" font-family="Helvetica,sans-Serif" font-size="8.00" fill="#000000">consumer &#45;&#45;&#45;(protocol)&#45;&#45;&#45;&gt; provider</text>
</g>
</g>
</svg>
